<?xml version="1.0" encoding="UTF-8" standalone="no" ?>
<!DOCTYPE svg PUBLIC "-//W3C//DTD SVG 1.1//EN" "http://www.w3.org/Graphics/SVG/1.1/DTD/svg11.dtd">
<svg xmlns="http://www.w3.org/2000/svg" xmlns:xlink="http://www.w3.org/1999/xlink" version="1.1" width="1080" height="1080" viewBox="0 0 1080 1080" xml:space="preserve">
<desc>Created with Fabric.js 5.2.4</desc>
<defs>
</defs>
<g transform="matrix(1 0 0 1 540 540)" id="120e1efd-3576-408a-a3f3-6feca5e88418"  >
</g>
<g transform="matrix(1 0 0 1 540 540)" id="7c589401-adca-4b8c-bb3e-2732ee948c6b"  >
<rect style="stroke: none; stroke-width: 1; stroke-dasharray: none; stroke-linecap: butt; stroke-dashoffset: 0; stroke-linejoin: miter; stroke-miterlimit: 4; fill: rgb(255,255,255); fill-rule: nonzero; opacity: 1; visibility: hidden;" vector-effect="non-scaling-stroke"  x="-540" y="-540" rx="0" ry="0" width="1080" height="1080" />
</g>
<g transform="matrix(16.88 0 0 16.88 540 540)"  >
<g style=""   >
		<g transform="matrix(1 0 0 1 -0.22 0.68)"  >
<path style="stroke: none; stroke-width: 1; stroke-dasharray: none; stroke-linecap: butt; stroke-dashoffset: 0; stroke-linejoin: miter; stroke-miterlimit: 4; fill: rgb(0,0,0); fill-rule: evenodd; opacity: 0.2;" vector-effect="non-scaling-stroke"  transform=" translate(-31.78, -24.18)" d="M 4.44003 46.3732 C 2.33389 46.3732 0.0479286 44.8936 0.00727544 41.6467 L 0.00571271 41.6074 C -0.111556 38.2222 1.57555 35.1922 5.16554 32.3479 C 8.48815 29.7142 12.7677 27.7283 16.5422 25.9752 C 17.5178 25.5223 18.7296 24.961 19.8007 24.4295 L 22.0991 23.2912 L 20.2307 21.5301 C 13.2102 14.9137 8.37401 9.8885 10.1143 5.46235 C 11.0196 3.16044 13.3259 1.99219 16.9722 1.99219 C 17.1332 1.99219 17.2989 1.99376 17.4678 1.99848 L 17.5491 2.00162 C 20.2901 2.12426 24.9042 4.129 30.1954 7.50011 L 31.834 8.54415 L 32.7206 6.80828 C 33.7025 4.88845 35.8274 3.91517 39.0343 3.91517 C 39.1969 3.91517 39.3674 3.91831 39.5409 3.92303 C 42.224 3.98907 46.4707 5.82085 51.5055 9.08189 C 55.7443 11.8272 59.647 15.0332 61.1668 16.6543 C 63.0807 18.6606 63.889 21.0506 63.4528 23.3965 C 62.4474 28.8022 55.6912 32.3589 48.8583 35.5382 L 48.7536 35.5869 C 48.3892 35.7567 48.0531 35.9124 47.7529 36.0555 L 47.7153 36.0728 L 47.6778 36.0932 C 39.2986 40.5838 33.2272 43.554 29.6309 44.9203 C 28.8742 45.2128 28.1471 45.359 27.4591 45.359 C 25.0606 45.359 23.3031 43.6169 23.0889 41.0225 L 23.0826 40.9423 C 23.0811 40.8857 23.0779 40.8008 23.0764 40.7945 L 22.8934 38.0964 L 20.4996 39.3275 C 15.4367 41.9329 10.2628 44.5351 6.7041 45.9235 L 6.6056 45.9612 C 5.83475 46.238 5.12645 46.3732 4.44003 46.3732 Z" stroke-linecap="round" />
</g>
		<g transform="matrix(1 0 0 1 0.2 -0.68)"  >
<path style="stroke: none; stroke-width: 1; stroke-dasharray: none; stroke-linecap: butt; stroke-dashoffset: 0; stroke-linejoin: miter; stroke-miterlimit: 4; fill: rgb(255,255,255); fill-rule: evenodd; opacity: 1;" vector-effect="non-scaling-stroke"  transform=" translate(-32.2, -22.82)" d="M 4.85214 45.008 C 2.746 45.008 0.46004 43.5284 0.419387 40.2815 L 0.417822 40.2422 C 0.300553 36.8569 1.98766 33.827 5.57764 30.9826 C 8.90025 28.349 13.1798 26.3631 16.9543 24.6099 C 17.9299 24.1571 19.1417 23.5958 20.2128 23.0643 L 22.5112 21.9259 L 20.6428 20.1649 C 13.6223 13.5485 8.78611 8.52327 10.5264 4.09712 C 11.4317 1.79521 13.738 0.626953 17.3842 0.626953 C 17.5453 0.626953 17.711 0.628527 17.8799 0.633244 L 17.9612 0.636389 C 20.7022 0.759032 25.3163 2.76377 30.6075 6.13488 L 32.2461 7.17892 L 33.1326 5.44305 C 34.1146 3.52321 36.2395 2.54993 39.4464 2.54993 C 39.609 2.54993 39.7794 2.55308 39.953 2.55779 C 42.6361 2.62383 46.8828 4.45562 51.9175 7.71666 C 56.1564 10.462 60.0591 13.668 61.5789 15.2891 C 63.4927 17.2954 64.3011 19.6853 63.8648 22.0313 C 62.8595 27.437 56.1032 30.9937 49.2704 34.1729 L 49.1656 34.2217 C 48.8013 34.3915 48.4651 34.5472 48.1649 34.6902 L 48.1274 34.7075 L 48.0899 34.728 C 39.7106 39.2186 33.6393 42.1888 30.043 43.5551 C 29.2862 43.8476 28.5592 43.9938 27.8712 43.9938 C 25.4727 43.9938 23.7152 42.2516 23.501 39.6573 L 23.4947 39.5771 C 23.4932 39.5205 23.49 39.4356 23.4885 39.4293 L 23.3055 36.7311 L 20.9117 37.9623 C 15.8488 40.5677 10.6749 43.1699 7.11621 44.5583 L 7.0177 44.596 C 6.24529 44.8743 5.53699 45.008 4.85214 45.008 Z" stroke-linecap="round" />
</g>
		<g transform="matrix(1 0 0 1 0.23 -0.68)"  >
<path style="stroke: none; stroke-width: 1; stroke-dasharray: none; stroke-linecap: butt; stroke-dashoffset: 0; stroke-linejoin: miter; stroke-miterlimit: 4; fill: rgb(239,82,35); fill-rule: evenodd; opacity: 1;" vector-effect="non-scaling-stroke"  transform=" translate(-32.23, -22.82)" d="M 59.3729 17.4425 C 55.9956 13.8199 44.5157 5.78361 39.9 5.6704 C 27.7432 5.33078 45.8651 19.3655 47.3286 21.5165 C 51.3799 25.8168 26.2797 29.7792 26.6174 39.4003 C 26.73 40.7588 27.518 41.2117 28.9815 40.6456 C 34.046 38.7211 43.3884 33.7415 46.7657 31.9301 C 51.494 29.6659 65.5631 23.8939 59.3729 17.4425 Z M 38.8868 16.4237 C 35.2843 12.5746 22.9039 3.97227 17.8379 3.74585 C 4.66939 3.40622 24.2533 18.5731 25.8294 20.9504 C 30.3325 25.592 3.0933 29.7792 3.54361 40.1928 C 3.54361 41.7777 4.44423 42.2306 6.02033 41.6645 C 11.5351 39.5135 21.553 34.0811 25.268 32.2698 C 30.3325 29.6659 45.5289 23.441 38.8868 16.4237 Z" stroke-linecap="round" />
</g>
		<g transform="matrix(1 0 0 1 -5.12 -9.57)"  >
<path style="stroke: none; stroke-width: 1; stroke-dasharray: none; stroke-linecap: butt; stroke-dashoffset: 0; stroke-linejoin: miter; stroke-miterlimit: 4; fill: rgb(242,108,33); fill-rule: evenodd; opacity: 1;" vector-effect="non-scaling-stroke"  transform=" translate(-26.88, -13.93)" d="M 15.1191 6.00955 C 15.1191 6.57559 16.0198 7.93409 16.3575 8.27372 C 17.3707 9.85864 18.8342 11.3304 20.071 12.6873 C 21.5345 14.159 22.998 15.5175 24.5741 16.9892 C 25.3622 17.6685 26.6005 18.8006 27.276 19.8194 C 27.8389 20.3855 28.1766 21.1779 28.1766 21.9704 C 28.1766 22.0836 28.1766 22.0836 28.1766 22.1968 C 28.8521 21.9704 29.415 21.8572 30.0904 21.744 C 33.0175 21.0647 35.8303 20.4987 38.6448 20.0458 C 38.6448 19.1402 38.0819 18.3477 37.519 17.7817 C 34.3668 14.3854 22.2115 5.78313 17.821 5.66992 C 17.3707 5.66992 15.682 5.66992 15.1191 6.00955 Z" stroke-linecap="round" />
</g>
		<g transform="matrix(1 0 0 1 15.74 -10.27)"  >
<path style="stroke: none; stroke-width: 1; stroke-dasharray: none; stroke-linecap: butt; stroke-dashoffset: 0; stroke-linejoin: miter; stroke-miterlimit: 4; fill: rgb(242,108,33); fill-rule: evenodd; opacity: 1;" vector-effect="non-scaling-stroke"  transform=" translate(-47.74, -13.23)" d="M 37.6133 7.81966 C 37.7259 9.17816 41.2158 12.9125 42.1149 13.8182 C 43.4658 15.1767 44.8167 16.422 46.1661 17.7805 C 46.5038 18.1201 46.9542 18.4597 47.517 18.9126 C 51.1196 18.6861 54.6079 18.5729 57.8727 18.5729 C 54.8331 15.5163 43.9161 7.70645 39.8633 7.59324 C 39.4145 7.48003 38.0636 7.59324 37.6133 7.81966 Z" stroke-linecap="round" />
</g>
</g>
</g>
</svg>