<?xml version="1.0" encoding="UTF-8" standalone="no" ?>
<!DOCTYPE svg PUBLIC "-//W3C//DTD SVG 1.1//EN" "http://www.w3.org/Graphics/SVG/1.1/DTD/svg11.dtd">
<svg xmlns="http://www.w3.org/2000/svg" xmlns:xlink="http://www.w3.org/1999/xlink" version="1.1" width="1080" height="1080" viewBox="0 0 1080 1080" xml:space="preserve">
<desc>Created with Fabric.js 5.2.4</desc>
<defs>
</defs>
<g transform="matrix(1 0 0 1 540 540)" id="7c589401-adca-4b8c-bb3e-2732ee948c6b"  >
<rect style="stroke: none; stroke-width: 1; stroke-dasharray: none; stroke-linecap: butt; stroke-dashoffset: 0; stroke-linejoin: miter; stroke-miterlimit: 4; fill: rgb(255,255,255); fill-rule: nonzero; opacity: 1; visibility: hidden;" vector-effect="non-scaling-stroke"  x="-540" y="-540" rx="0" ry="0" width="1080" height="1080" />
</g>
<g transform="matrix(1 0 0 1 540 540)" id="120e1efd-3576-408a-a3f3-6feca5e88418"  >
</g>
<g transform="matrix(6.84 0 0 6.84 540 540)"  >
<g style=""   >
		<g transform="matrix(1 0 0 1 -0.29 -0.13)"  >
<path style="stroke: none; stroke-width: 1; stroke-dasharray: none; stroke-linecap: butt; stroke-dashoffset: 0; stroke-linejoin: miter; stroke-miterlimit: 4; fill: rgb(255,255,255); fill-rule: evenodd; opacity: 1;" vector-effect="non-scaling-stroke"  transform=" translate(-78.71, -26.87)" d="M 26.5863 41.4307 C 23.4586 41.9794 19.8674 39.3234 19.3188 36.2321 C 18.8268 33.4567 18.2074 30.6934 17.4219 27.9827 C 15.8591 30.0658 14.942 31.8776 14.025 34.4547 C 12.8771 37.6796 10.8669 40.3497 7.3121 40.953 C 5.97397 41.1797 4.66015 41.0684 3.33012 40.87 L 0 40.372 L 0.947414 37.1411 C 4.21276 25.9887 8.18461 14.0833 13.7841 3.87832 C 15.0291 1.60897 17.6021 -0.31622 20.2864 0.760756 C 22.8412 1.78712 23.3149 4.61114 22.8493 7.02017 C 22.7784 7.38658 22.7015 7.753 22.6185 8.11536 C 26.1005 5.10104 29.8699 2.46327 34.113 0.552244 C 36.1799 -0.378975 38.5849 -0.208928 40.0829 1.65149 C 41.7794 3.7609 41.2976 6.90275 39.2448 8.58907 C 38.3136 9.35429 37.4229 10.1053 36.5908 10.8584 C 35.4754 11.907 37.0929 12.3403 38.3055 11.5771 C 40.0505 10.6114 41.9352 9.93934 43.4272 9.59519 C 46.9861 8.77126 50.9397 8.96561 53.8731 11.2289 C 54.0877 10.579 54.3022 9.93326 54.5168 9.29153 C 55.3084 6.91895 56.1201 4.55244 56.9299 2.1839 L 57.6182 0.171658 L 59.7438 0.197976 C 63.5577 0.244537 67.3737 0.430777 71.1897 0.384216 C 75.7689 0.329558 82.3259 0.969264 83.2955 6.56468 C 83.4777 7.61534 83.5506 8.61336 83.5223 9.56685 C 84.6701 9.34619 85.8766 9.50612 87.0164 10.2147 C 88.8727 11.3686 89.5266 13.476 89.229 15.5469 C 88.8403 17.5389 90.3971 17.4235 90.9639 15.5894 C 91.6401 14.0165 92.4559 12.5751 93.456 11.6277 C 95.2354 9.94136 97.8732 8.8401 100.134 10.3584 C 100.226 10.4191 100.315 10.4839 100.398 10.5507 C 101.197 8.8988 102.035 7.26714 102.916 5.65573 C 104.586 2.60497 107.866 -0.249416 111.576 1.08871 C 114.67 2.20212 115.74 5.50997 115.538 8.52834 C 115.427 10.1924 115.323 11.8564 115.226 13.5225 C 117.046 10.577 118.83 7.60724 120.631 4.64961 C 121.225 3.67588 122.036 2.83373 122.951 2.15961 C 126.502 -0.461975 130.792 -0.166413 132.533 2.64749 C 134.585 0.276928 138.529 -0.257511 140.926 1.94503 C 142.533 3.42081 142.825 5.5707 142.185 7.58295 C 140.861 11.7491 139.422 16.134 137.642 20.3245 C 138.94 20.618 140.519 21.3549 142.055 22.2598 C 142.995 21.2698 144.418 20.948 145.827 20.9844 C 148.706 21.0593 153.989 24.6728 155.977 26.764 C 156.965 27.8026 157.534 29.1144 157.402 30.5618 C 157.064 34.2543 152.785 35.9629 149.928 37.4022 C 147.434 38.6614 144.857 40.1372 142.256 41.1291 C 141.614 41.3741 140.972 41.453 140.371 41.3903 C 141.066 42.3903 141.474 43.6009 141.474 44.9026 C 141.474 49.7571 137.503 53.7309 132.646 53.7309 L 30.2808 53.7309 C 26.8819 53.7309 24.1024 50.9494 24.1024 47.5525 C 24.1004 45.1819 25.0498 43.0219 26.5863 41.4307 Z" stroke-linecap="round" />
</g>
		<g transform="matrix(1 0 0 1 -7.34 -6.06)"  >
<path style="stroke: none; stroke-width: 1; stroke-dasharray: none; stroke-linecap: butt; stroke-dashoffset: 0; stroke-linejoin: miter; stroke-miterlimit: 4; fill: rgb(23,95,173); fill-rule: evenodd; opacity: 1;" vector-effect="non-scaling-stroke"  transform=" translate(-71.66, -20.94)" d="M 125.201 31.975 C 127.073 30.1955 130.162 31.8818 129.413 33.6127 C 129.274 35.6735 127.915 36.8902 126.136 37.6392 C 124.919 37.9672 123.654 38.5279 122.812 37.453 C 122.3 35.5784 123.798 33.4244 125.201 31.975 Z M 92.8064 38.621 C 96.3653 27.6671 99.8756 16.7111 105.493 7.06889 C 108.208 1.77916 112.983 3.04238 112.609 8.33211 C 112.374 12.0307 112.188 15.7758 111.953 19.4744 C 111.86 21.5817 113.733 21.3004 114.714 19.8489 C 117.524 15.2616 120.332 10.7209 123.14 6.18018 C 125.106 2.90269 131.8 1.4512 130.209 7.11545 C 128.476 16.8993 125.294 26.169 121.081 35.2039 C 120.146 37.9651 116.54 38.9955 117.101 35.7646 C 118.364 30.896 119.676 25.9807 120.986 21.1586 C 121.688 18.2091 119.769 19.7537 117.99 23.1709 C 115.743 27.1974 114.058 30.896 111.295 35.0621 C 107.971 40.0239 104.74 39.8377 104.835 34.4062 C 105.07 30.9891 105.35 27.5719 105.631 24.1547 C 105.959 20.4096 105.068 19.8003 103.524 23.8268 C 99.0334 37.2181 95.8025 39.1372 92.8064 38.621 Z M 62.3778 23.0798 C 61.4425 23.9685 60.7401 26.4504 60.2238 30.3818 C 60.2238 31.6936 60.6915 32.2543 61.5822 32.394 C 63.0337 32.4406 64.9062 32.5337 66.3112 32.4406 C 72.9127 32.2057 76.0485 23.6871 69.6818 23.1709 C 67.0582 23.1263 64.9994 23.1264 62.3778 23.0798 Z M 67.5278 9.2694 C 66.4509 9.2694 65.3739 13.0611 65.2808 15.4013 C 65.0459 17.2738 66.9185 17.039 68.2769 17.0856 C 72.8641 17.2253 74.925 15.6806 76.3279 13.1056 C 77.4514 10.484 76.7955 9.22082 73.7994 9.22082 C 71.694 9.22284 69.6332 9.2694 67.5278 9.2694 Z M 59.7096 3.13752 C 56.1528 13.5307 52.5939 24.7195 51.2355 33.801 C 50.861 38.2485 52.266 38.7162 55.0738 38.7162 C 57.8351 38.6696 60.6449 38.6231 63.4527 38.6231 C 67.1979 38.3417 70.7081 36.7971 73.7994 33.2402 C 74.3136 32.6794 74.7832 32.9123 74.7347 33.3333 C 74.7347 37.4064 78.2915 41.6657 85.3141 36.5643 C 86.8587 35.7687 87.2798 35.8618 87.3264 36.7505 C 87.3729 37.3133 87.1401 37.9672 86.9519 38.4834 C 90.8367 38.8113 94.8166 30.7583 99.0759 14.9822 C 99.3108 12.5955 97.7176 11.6116 95.4705 13.7656 C 92.5675 16.4803 91.3509 27.0618 88.4944 30.6186 C 84.5611 36.4225 80.7694 33.1005 81.5184 30.4324 C 83.1561 23.1284 85.0752 21.8652 86.2939 15.2656 C 86.8567 11.9882 83.4375 11.3808 81.3787 14.5632 C 80.1155 16.8568 79.1316 19.3387 78.4292 21.8672 C 77.4939 24.2539 76.1355 24.0211 75.761 22.6628 C 75.5728 21.4461 74.7772 20.5088 73.7953 19.6667 C 78.0547 16.6706 81.1925 13.0186 80.3969 7.07294 C 79.7875 4.21652 76.4169 3.14157 71.2223 3.32782 C 67.3861 3.27721 63.5479 3.18408 59.7096 3.13752 Z M 45.1037 26.8249 C 44.1684 26.497 41.8262 27.4343 40.2816 28.4626 C 37.5669 30.5214 37.7531 31.5984 38.1276 33.0033 C 38.737 34.5014 41.7796 34.1269 44.0267 31.7401 C 46.1786 29.2117 46.3669 27.3857 45.1037 26.8249 Z M 40.8423 19.8023 C 40.233 21.1607 35.6923 19.8489 36.1619 17.9763 C 36.3968 14.4174 47.4904 9.45565 52.687 14.0915 C 56.2925 18.1646 48.0066 29.3068 48.0998 37.123 C 48.1463 37.9186 47.5856 38.2931 46.6483 38.3396 C 45.6644 38.3396 44.6826 38.3396 43.6987 38.3396 C 42.7635 38.3862 42.061 37.7303 41.4517 36.795 C 38.8766 39.1352 31.2467 40.1656 30.356 36.046 C 29.6535 32.5357 29.5604 29.6793 34.3825 25.9807 C 37.1923 24.0616 40.6561 23.4523 45.1968 22.6101 C 47.1159 21.8145 48.0532 18.865 46.1806 18.0694 C 43.9801 17.041 42.3404 18.118 40.8423 19.8023 Z M 3.76562 37.9672 C 7.27592 25.9828 11.1627 14.2332 16.3594 5.29148 C 17.8108 2.48162 20.7138 2.71645 19.9648 6.46157 C 19.5437 8.70865 18.9344 10.8626 18.1854 12.968 C 17.7177 14.5591 18.9344 15.6361 21.0883 13.5307 C 26.2384 8.47381 30.8256 5.5263 35.3198 3.23267 C 38.1762 2.10913 38.9252 4.96555 37.3806 6.32189 C 30.9208 11.2837 25.3497 16.8548 27.5502 27.0597 C 28.0178 30.0093 28.3458 32.9122 28.0178 35.8618 C 26.9408 40.777 22.5398 37.874 22.2139 35.7221 C 21.558 32.4912 20.9021 29.2157 19.9203 26.0779 C 19.1712 23.596 17.4384 23.0818 15.4727 25.7034 C 13.8349 27.7156 12.3835 29.4951 11.2599 33.475 C 9.1505 38.3417 6.57548 38.3882 3.76562 37.9672 Z M 127.355 27.9019 C 127.262 29.5396 128.666 30.0558 130.49 27.6671 C 133.861 21.7214 136.764 14.6057 139.386 6.69438 C 140.509 2.99582 135.64 2.52818 134.424 5.05665 C 131.942 9.45565 129.648 17.7901 127.355 27.9019 Z" stroke-linecap="round" />
</g>
		<g transform="matrix(1 0 0 1 4.24 18.68)"  >
<path style="stroke: none; stroke-width: 1; stroke-dasharray: none; stroke-linecap: butt; stroke-dashoffset: 0; stroke-linejoin: miter; stroke-miterlimit: 4; fill: rgb(23,95,173); fill-rule: nonzero; opacity: 1;" vector-effect="non-scaling-stroke"  transform=" translate(-83.24, -45.68)" d="M 132.7 50.6253 L 133.52 47.5968 C 133.63 47.198 133.771 46.8276 133.943 46.4875 C 134.113 46.1453 134.308 45.8477 134.526 45.5927 C 134.747 45.3376 134.976 45.1372 135.221 44.9955 C 135.464 44.8538 135.713 44.7809 135.966 44.7789 C 136.037 44.7789 136.097 44.7809 136.15 44.789 C 136.201 44.793 136.247 44.8011 136.29 44.8072 L 136.614 43.6472 C 136.565 43.6412 136.508 43.6331 136.45 43.629 C 136.391 43.6209 136.332 43.6189 136.275 43.6189 C 135.968 43.6209 135.676 43.6938 135.407 43.8355 C 135.136 43.9792 134.883 44.1736 134.654 44.4185 C 134.423 44.6655 134.221 44.9469 134.043 45.2607 L 134 45.2607 C 134.065 44.9995 134.122 44.7465 134.172 44.5015 C 134.227 44.2566 134.275 44.0157 134.322 43.7748 L 133.289 43.7748 C 133.243 43.9894 133.192 44.2282 133.138 44.4914 C 133.083 44.7526 133.022 45.0319 132.955 45.3214 C 132.889 45.6149 132.814 45.9085 132.733 46.2081 L 131.526 50.6233 L 132.7 50.6233 L 132.7 50.6253 Z M 126.793 47.2567 C 126.915 46.8519 127.071 46.4854 127.261 46.1595 C 127.453 45.8336 127.668 45.5542 127.905 45.3194 C 128.141 45.0886 128.39 44.9084 128.65 44.7829 C 128.909 44.6574 129.166 44.5947 129.423 44.5947 C 129.656 44.5967 129.85 44.6412 130.008 44.7283 C 130.168 44.8153 130.291 44.9368 130.382 45.0886 C 130.474 45.2404 130.534 45.4145 130.567 45.6068 C 130.597 45.8032 130.603 46.0056 130.585 46.2202 C 130.559 46.53 130.49 46.8498 130.378 47.1859 C 130.265 47.5199 130.117 47.8458 129.931 48.1616 C 129.745 48.4774 129.524 48.7629 129.271 49.0179 C 129.018 49.273 128.737 49.4755 128.427 49.6273 C 128.119 49.7771 127.787 49.856 127.433 49.8581 C 127.073 49.8581 126.803 49.771 126.631 49.601 C 126.459 49.4289 126.386 49.1819 126.413 48.854 C 126.421 48.6718 126.441 48.5098 126.469 48.3681 C 126.498 48.2264 126.532 48.0948 126.571 47.9774 L 126.793 47.2567 Z M 127.51 40.5762 L 125.419 47.9491 C 125.37 48.1151 125.324 48.2932 125.285 48.4815 C 125.245 48.6698 125.216 48.8519 125.202 49.024 C 125.172 49.441 125.234 49.7811 125.394 50.0382 C 125.556 50.2974 125.791 50.4856 126.097 50.6051 C 126.403 50.7225 126.757 50.7812 127.164 50.7792 C 127.621 50.7771 128.05 50.7083 128.449 50.5767 C 128.85 50.4451 129.216 50.2629 129.552 50.0301 C 129.886 49.7973 130.186 49.5281 130.455 49.2204 C 130.723 48.9127 130.949 48.5847 131.142 48.2365 C 131.336 47.8843 131.49 47.526 131.603 47.1616 C 131.717 46.7952 131.789 46.4348 131.82 46.0805 C 131.846 45.7708 131.836 45.4753 131.785 45.1817 C 131.735 44.8922 131.636 44.627 131.494 44.3922 C 131.348 44.1594 131.152 43.9691 130.899 43.8335 C 130.648 43.6938 130.336 43.6209 129.961 43.6189 C 129.652 43.6189 129.35 43.6736 129.052 43.7768 C 128.753 43.8841 128.467 44.0379 128.192 44.2485 C 127.921 44.455 127.67 44.7121 127.439 45.0198 L 127.411 45.0198 L 128.69 40.5762 L 127.51 40.5762 Z M 123.224 50.767 C 123.402 50.765 123.558 50.7225 123.7 50.6415 C 123.84 50.5585 123.951 50.4472 124.04 50.3075 C 124.127 50.1678 124.178 50.0099 124.196 49.8338 C 124.21 49.6718 124.188 49.5261 124.133 49.4006 C 124.081 49.273 123.998 49.1718 123.884 49.0989 C 123.773 49.026 123.633 48.9876 123.473 48.9856 C 123.295 48.9876 123.139 49.0301 122.997 49.1151 C 122.858 49.2001 122.744 49.3135 122.657 49.4552 C 122.57 49.5989 122.52 49.7568 122.502 49.933 C 122.487 50.0909 122.51 50.2326 122.564 50.3581 C 122.617 50.4836 122.698 50.5828 122.807 50.6557 C 122.919 50.7286 123.052 50.767 123.208 50.769 L 123.224 50.769 L 123.224 50.767 Z M 112.969 50.6253 L 113.894 47.1859 C 113.995 46.8174 114.135 46.4773 114.315 46.1676 C 114.495 45.8538 114.698 45.5805 114.924 45.3437 C 115.149 45.1109 115.382 44.9267 115.619 44.7971 C 115.857 44.6655 116.088 44.5987 116.305 44.5967 C 116.59 44.5987 116.801 44.6574 116.938 44.7708 C 117.076 44.8841 117.165 45.0299 117.2 45.208 C 117.236 45.3882 117.246 45.5745 117.226 45.7729 C 117.216 45.9044 117.196 46.0401 117.171 46.1737 C 117.147 46.3073 117.113 46.4551 117.072 46.6089 L 115.971 50.6273 L 117.102 50.6273 L 118.048 47.117 C 118.153 46.7324 118.295 46.3883 118.473 46.0785 C 118.649 45.7688 118.848 45.5036 119.066 45.283 C 119.285 45.0603 119.511 44.8943 119.744 44.7748 C 119.975 44.6574 120.198 44.5947 120.412 44.5947 C 120.667 44.5947 120.864 44.6432 121.01 44.7424 C 121.151 44.8396 121.248 44.9752 121.303 45.1534 C 121.354 45.3295 121.37 45.54 121.348 45.783 C 121.335 45.9267 121.313 46.0785 121.281 46.2324 C 121.248 46.3903 121.212 46.536 121.174 46.6737 L 120.107 50.6233 L 121.252 50.6233 L 122.356 46.5765 C 122.39 46.447 122.423 46.3154 122.451 46.1757 C 122.479 46.036 122.502 45.9024 122.524 45.7708 C 122.544 45.6413 122.558 45.5238 122.568 45.4166 C 122.593 45.0967 122.566 44.8194 122.489 44.5906 C 122.412 44.3639 122.297 44.1776 122.147 44.0339 C 121.999 43.8902 121.827 43.7869 121.639 43.7181 C 121.447 43.6513 121.25 43.6189 121.05 43.6189 C 120.538 43.625 120.056 43.7606 119.611 44.0177 C 119.161 44.2748 118.764 44.6513 118.416 45.1473 C 118.422 44.8578 118.376 44.5947 118.275 44.3659 C 118.173 44.1371 118.013 43.9549 117.797 43.8234 C 117.576 43.6898 117.295 43.6209 116.947 43.6189 C 116.491 43.6189 116.046 43.7383 115.613 43.9792 C 115.181 44.2201 114.785 44.5805 114.42 45.0623 L 114.378 45.0623 L 114.669 43.7748 L 113.637 43.7748 C 113.578 44.0582 113.509 44.3639 113.43 44.6979 C 113.353 45.0299 113.26 45.3882 113.159 45.7708 L 111.831 50.6253 L 112.969 50.6253 Z M 108.132 49.8479 C 107.804 49.8459 107.529 49.7609 107.304 49.5969 C 107.08 49.4309 106.916 49.2062 106.808 48.9167 C 106.703 48.6293 106.665 48.2952 106.693 47.9207 C 106.719 47.6049 106.784 47.2871 106.887 46.9672 C 106.989 46.6494 107.124 46.3437 107.288 46.0563 C 107.454 45.7668 107.647 45.5097 107.865 45.285 C 108.084 45.0582 108.327 44.8821 108.588 44.7485 C 108.851 44.6189 109.13 44.5521 109.426 44.5501 C 109.732 44.5521 109.985 44.6169 110.179 44.7364 C 110.377 44.8578 110.525 45.0157 110.633 45.208 C 110.736 45.4024 110.807 45.6068 110.843 45.8275 C 110.877 46.0461 110.886 46.2567 110.865 46.4591 C 110.839 46.783 110.77 47.1029 110.665 47.4247 C 110.56 47.7486 110.422 48.0523 110.25 48.3418 C 110.08 48.6293 109.886 48.8864 109.663 49.1131 C 109.444 49.3378 109.205 49.5139 108.948 49.6435 C 108.691 49.773 108.424 49.8398 108.147 49.8419 L 108.132 49.8419 L 108.132 49.8479 Z M 107.926 50.7812 C 108.385 50.7792 108.819 50.6962 109.224 50.5362 C 109.626 50.3763 109.997 50.1536 110.329 49.8743 C 110.661 49.5929 110.952 49.269 111.203 48.9025 C 111.454 48.5361 111.651 48.1454 111.803 47.7304 C 111.952 47.3154 112.048 46.8923 112.084 46.4652 C 112.114 46.0988 112.092 45.7506 112.011 45.4105 C 111.934 45.0724 111.797 44.7687 111.6 44.4995 C 111.404 44.2303 111.141 44.0177 110.817 43.8598 C 110.491 43.7039 110.096 43.6209 109.634 43.6189 C 109.189 43.6209 108.766 43.6999 108.367 43.8517 C 107.968 44.0076 107.6 44.2201 107.266 44.4955 C 106.932 44.7688 106.636 45.0906 106.383 45.455 C 106.128 45.8214 105.926 46.2142 105.77 46.6413 C 105.614 47.0664 105.517 47.5078 105.476 47.9632 C 105.444 48.3519 105.472 48.7163 105.561 49.0524 C 105.651 49.3925 105.798 49.6921 106.005 49.9492 C 106.209 50.2083 106.474 50.4087 106.794 50.5545 C 107.112 50.7002 107.485 50.7771 107.914 50.7792 L 107.926 50.7792 L 107.926 50.7812 Z M 104.709 49.4228 C 104.586 49.4815 104.444 49.5382 104.284 49.5969 C 104.124 49.6556 103.942 49.7022 103.744 49.7427 C 103.545 49.7832 103.329 49.8014 103.092 49.8034 C 102.719 49.8014 102.411 49.7265 102.175 49.5746 C 101.936 49.4248 101.762 49.2123 101.656 48.937 C 101.553 48.6617 101.517 48.3378 101.547 47.9632 C 101.573 47.6373 101.646 47.3154 101.758 46.9936 C 101.871 46.6717 102.023 46.368 102.211 46.0805 C 102.401 45.7931 102.622 45.538 102.877 45.3153 C 103.134 45.0906 103.416 44.9165 103.727 44.789 C 104.037 44.6615 104.373 44.5967 104.729 44.5926 C 104.984 44.5947 105.205 44.621 105.393 44.6736 C 105.582 44.7222 105.74 44.7829 105.869 44.8477 L 106.286 43.9286 C 106.217 43.8841 106.112 43.8396 105.974 43.793 C 105.835 43.7464 105.673 43.7039 105.484 43.6695 C 105.296 43.6371 105.098 43.6209 104.883 43.6169 C 104.389 43.6189 103.922 43.7019 103.48 43.8598 C 103.039 44.0197 102.636 44.2444 102.268 44.5278 C 101.899 44.8133 101.577 45.1453 101.3 45.5259 C 101.021 45.9024 100.798 46.3134 100.632 46.7526 C 100.462 47.194 100.359 47.6495 100.316 48.1191 C 100.286 48.4876 100.31 48.8297 100.393 49.1475 C 100.474 49.4653 100.614 49.7467 100.812 49.9897 C 101.009 50.2306 101.266 50.4209 101.586 50.5585 C 101.905 50.6941 102.286 50.763 102.727 50.767 C 103.035 50.765 103.318 50.7407 103.578 50.6982 C 103.837 50.6537 104.065 50.599 104.262 50.5322 C 104.46 50.4694 104.622 50.4047 104.746 50.3419 L 104.709 49.4228 Z M 98.4194 50.767 C 98.5975 50.765 98.7534 50.7225 98.8951 50.6415 C 99.0348 50.5585 99.1482 50.4472 99.2352 50.3075 C 99.3223 50.1678 99.3729 50.0099 99.3911 49.8338 C 99.4053 49.6718 99.383 49.5261 99.3283 49.4006 C 99.2757 49.273 99.1927 49.1718 99.0793 49.0989 C 98.968 49.026 98.8283 48.9876 98.6684 48.9856 C 98.4902 48.9876 98.3344 49.0301 98.1926 49.1151 C 98.053 49.2001 97.9396 49.3135 97.8525 49.4552 C 97.7655 49.5989 97.7149 49.7568 97.6967 49.933 C 97.6825 50.0909 97.7048 50.2326 97.7594 50.3581 C 97.8121 50.4836 97.893 50.5828 98.0044 50.6557 C 98.1157 50.7286 98.2493 50.767 98.4052 50.769 L 98.4194 50.769 L 98.4194 50.767 Z M 88.4553 50.6253 L 89.2975 47.5118 C 89.4189 47.0543 89.5789 46.6535 89.7813 46.3073 C 89.9817 45.9611 90.2004 45.6858 90.4392 45.4915 C 90.6781 45.2951 90.915 45.1939 91.1478 45.1919 C 91.3138 45.1939 91.4393 45.2323 91.5284 45.3052 C 91.6174 45.3781 91.6761 45.4793 91.7065 45.6068 C 91.7348 45.7344 91.745 45.8781 91.7288 46.0401 C 91.7186 46.1595 91.6984 46.287 91.6721 46.4166 C 91.6437 46.5482 91.6114 46.6838 91.579 46.8174 L 90.5384 50.6253 L 92.5061 50.6253 L 93.3483 47.4976 C 93.4799 47.028 93.6438 46.619 93.8422 46.2749 C 94.0386 45.9307 94.2512 45.6635 94.4819 45.4753 C 94.7107 45.287 94.9395 45.1918 95.1682 45.1898 C 95.3241 45.1898 95.4476 45.2242 95.5447 45.2951 C 95.6379 45.3639 95.7047 45.4611 95.7452 45.5826 C 95.7816 45.706 95.7937 45.8457 95.7796 46.0097 C 95.7674 46.1433 95.7472 46.283 95.7168 46.4267 C 95.6865 46.5684 95.65 46.7081 95.6115 46.8437 L 94.6014 50.6233 L 96.5833 50.6233 L 97.6703 46.6049 C 97.6987 46.4834 97.7291 46.3498 97.7574 46.202 C 97.7858 46.0563 97.8121 45.9125 97.8363 45.7729 C 97.8606 45.6311 97.8748 45.5137 97.8829 45.4166 C 97.9153 45.0218 97.8748 44.6878 97.7675 44.4104 C 97.6582 44.1311 97.4841 43.9205 97.2452 43.7728 C 97.0084 43.625 96.7128 43.5501 96.3565 43.548 C 96.0549 43.548 95.7553 43.5946 95.4597 43.6918 C 95.1662 43.7869 94.8828 43.9327 94.6115 44.125 C 94.3402 44.3214 94.0892 44.5663 93.8544 44.8639 C 93.8524 44.71 93.826 44.5542 93.7673 44.4023 C 93.7086 44.2485 93.6216 44.1068 93.5001 43.9772 C 93.3786 43.8497 93.2207 43.7464 93.0264 43.6675 C 92.8321 43.5885 92.5972 43.5501 92.3219 43.546 C 91.8745 43.544 91.4393 43.6472 91.0202 43.8557 C 90.5992 44.0663 90.2084 44.3902 89.8501 44.8356 L 89.8218 44.8356 L 90.0445 43.7039 L 88.2893 43.7039 C 88.2225 44.0157 88.1456 44.3578 88.0586 44.7323 C 87.9695 45.1068 87.8683 45.5158 87.7468 45.953 L 86.4917 50.6233 L 88.4553 50.6233 L 88.4553 50.6253 Z M 85.3459 43.7039 L 84.4673 46.9166 C 84.3418 47.3762 84.1758 47.7709 83.9774 48.0989 C 83.7749 48.4288 83.5563 48.6819 83.3195 48.858 C 83.0826 49.0321 82.8457 49.1232 82.6129 49.1252 C 82.4429 49.1232 82.3113 49.0868 82.2162 49.0159 C 82.121 48.9451 82.0542 48.8499 82.0178 48.7325 C 81.9834 48.6131 81.9732 48.4795 81.9854 48.3317 C 81.9955 48.2021 82.0178 48.0584 82.0502 47.8985 C 82.0826 47.7406 82.119 47.5766 82.1615 47.4126 L 83.1798 43.7039 L 81.1412 43.7039 L 80.0804 47.5685 C 80.0116 47.8094 79.9569 48.0361 79.9144 48.2487 C 79.876 48.4612 79.8476 48.6596 79.8314 48.8438 C 79.797 49.2831 79.8375 49.6455 79.9549 49.9309 C 80.0723 50.2184 80.2566 50.431 80.5096 50.5727 C 80.7647 50.7124 81.0764 50.7832 81.4509 50.7832 C 81.87 50.7852 82.2911 50.684 82.7121 50.4796 C 83.1352 50.2751 83.5421 49.9471 83.9369 49.4957 L 83.9632 49.5099 L 83.7425 50.6273 L 85.5402 50.6273 C 85.6151 50.3156 85.7001 49.9714 85.7912 49.5989 C 85.8844 49.2244 85.9896 48.8155 86.1111 48.3762 L 87.3804 43.7059 L 85.3459 43.7059 L 85.3459 43.7039 Z M 75.0093 47.1434 C 75.1267 46.7405 75.2826 46.3964 75.481 46.1049 C 75.6774 45.8174 75.896 45.5927 76.1349 45.4388 C 76.3778 45.2829 76.6208 45.206 76.8697 45.204 C 77.0762 45.206 77.2422 45.2586 77.3678 45.3619 C 77.4933 45.4631 77.5803 45.6048 77.6289 45.7809 C 77.6795 45.9611 77.6937 46.1636 77.6734 46.3923 C 77.6532 46.6352 77.5985 46.8883 77.5135 47.1494 C 77.4285 47.4106 77.3171 47.6657 77.1754 47.9147 C 77.0378 48.1616 76.8738 48.3843 76.6916 48.5827 C 76.5074 48.7831 76.307 48.941 76.0924 49.0584 C 75.8758 49.1738 75.647 49.2346 75.4102 49.2386 C 75.1672 49.2386 74.9871 49.1718 74.8636 49.0422 C 74.7401 48.9127 74.6854 48.7224 74.6976 48.4734 C 74.7016 48.3317 74.7178 48.1981 74.7462 48.0705 C 74.7705 47.943 74.8008 47.8236 74.8332 47.7102 L 75.0093 47.1434 Z M 74.8109 40.5762 L 72.823 47.5827 C 72.7623 47.7871 72.7076 47.9956 72.661 48.2082 C 72.6125 48.4187 72.5801 48.6313 72.5618 48.8418 C 72.5092 49.4613 72.6752 49.939 73.0578 50.2731 C 73.4404 50.6091 74.0417 50.7751 74.8616 50.7812 C 75.4851 50.7771 76.0499 50.682 76.558 50.4958 C 77.0661 50.3095 77.5176 50.0544 77.9103 49.7305 C 78.301 49.4066 78.635 49.0402 78.9103 48.6293 C 79.1857 48.2163 79.4023 47.7831 79.5602 47.3276 C 79.716 46.8721 79.8132 46.4186 79.8517 45.9692 C 79.878 45.6575 79.8638 45.3578 79.8011 45.0704 C 79.7424 44.7829 79.6371 44.5258 79.4873 44.2971 C 79.3334 44.0683 79.133 43.8881 78.88 43.7545 C 78.6269 43.6209 78.3212 43.5521 77.9609 43.548 C 77.6775 43.548 77.4001 43.5906 77.1329 43.6715 C 76.8637 43.7485 76.6147 43.8659 76.3778 44.0116 C 76.141 44.1594 75.9304 44.3376 75.7422 44.54 L 75.7138 44.54 L 76.8677 40.5762 L 74.8109 40.5762 Z M 70.0921 46.7466 C 69.9382 47.3114 69.754 47.7689 69.5394 48.1211 C 69.3269 48.4734 69.1062 48.7325 68.8754 48.8945 C 68.6447 49.0605 68.428 49.1394 68.2216 49.1374 C 68.0333 49.1354 67.8815 49.0888 67.7661 48.9916 C 67.6487 48.8945 67.5677 48.7629 67.5211 48.5908 C 67.4766 48.4187 67.4624 48.2203 67.4827 47.9916 C 67.5049 47.7325 67.5636 47.4652 67.6608 47.194 C 67.7559 46.9247 67.8815 46.6636 68.0373 46.4126 C 68.1932 46.1615 68.3714 45.9388 68.5779 45.7405 C 68.7803 45.54 69.0009 45.3842 69.2398 45.2668 C 69.4787 45.1514 69.7297 45.0927 69.9909 45.0906 C 70.0961 45.0906 70.1974 45.0987 70.2945 45.1068 C 70.3897 45.119 70.4767 45.1331 70.5537 45.1473 L 70.0921 46.7466 Z M 71.3654 50.6253 C 71.3776 50.4067 71.3998 50.1658 71.4363 49.8986 C 71.4707 49.6354 71.5132 49.3601 71.5638 49.0787 C 71.6124 48.7973 71.6671 48.522 71.7278 48.2527 C 71.7885 47.9835 71.8493 47.7385 71.91 47.5118 L 72.9364 43.8881 C 72.7461 43.8274 72.5295 43.7707 72.2865 43.7181 C 72.0416 43.6655 71.7825 43.625 71.5092 43.5946 C 71.2379 43.5642 70.9626 43.548 70.6873 43.548 C 70.0071 43.5501 69.3937 43.6452 68.8451 43.8274 C 68.2944 44.0096 67.8106 44.2566 67.3916 44.5744 C 66.9725 44.8922 66.6142 45.2566 66.3227 45.6676 C 66.0291 46.0785 65.8004 46.5138 65.6344 46.9774 C 65.4704 47.4389 65.3672 47.9045 65.3287 48.3762 C 65.2902 48.86 65.3449 49.2811 65.4886 49.6394 C 65.6324 49.9998 65.853 50.2791 66.1486 50.4796 C 66.4462 50.6779 66.8025 50.7792 67.2195 50.7812 C 67.4908 50.7832 67.7681 50.7366 68.0495 50.6395 C 68.3329 50.5423 68.6102 50.3824 68.8876 50.1577 C 69.1629 49.933 69.422 49.6313 69.669 49.2528 L 69.6973 49.2528 C 69.6629 49.4998 69.6265 49.7407 69.59 49.9694 C 69.5536 50.2002 69.5212 50.4208 69.4969 50.6253 L 71.3654 50.6253 Z M 60.5977 50.6253 L 61.2091 48.4025 L 62.035 47.6656 L 63.0047 50.6233 L 65.2842 50.6233 L 63.7011 46.5603 L 66.8855 43.7019 L 64.3651 43.7019 L 62.4197 45.8113 C 62.3103 45.9308 62.199 46.0583 62.0816 46.1878 C 61.9662 46.3194 61.8488 46.4551 61.7314 46.5887 L 61.703 46.5887 L 63.3549 40.5742 L 61.3305 40.5742 L 58.5774 50.6233 L 60.5977 50.6233 L 60.5977 50.6253 Z M 57.1988 50.767 C 57.3769 50.765 57.5328 50.7225 57.6745 50.6415 C 57.8142 50.5585 57.9275 50.4472 58.0146 50.3075 C 58.1016 50.1678 58.1522 50.0099 58.1705 49.8338 C 58.1846 49.6718 58.1624 49.5261 58.1077 49.4006 C 58.0551 49.273 57.9721 49.1718 57.8587 49.0989 C 57.7474 49.026 57.6077 48.9876 57.4478 48.9856 C 57.2696 48.9876 57.1137 49.0301 56.972 49.1151 C 56.8323 49.2001 56.719 49.3135 56.6319 49.4552 C 56.5449 49.5989 56.4943 49.7568 56.476 49.933 C 56.4639 50.0909 56.4841 50.2326 56.5388 50.3581 C 56.5914 50.4836 56.6724 50.5828 56.7817 50.6557 C 56.8931 50.7286 57.0267 50.767 57.1826 50.769 L 57.1988 50.769 L 57.1988 50.767 Z M 48.834 43.7748 L 48.8967 50.6253 L 49.9859 50.6253 L 52.2694 46.8599 C 52.3908 46.6595 52.4981 46.4632 52.5993 46.2749 C 52.7006 46.0866 52.7977 45.8943 52.8969 45.7 C 52.9961 45.5036 53.1014 45.2971 53.2107 45.0765 L 53.2391 45.0765 C 53.2127 45.3781 53.1945 45.6797 53.1864 45.9773 C 53.1763 46.2769 53.1763 46.5867 53.1844 46.9025 L 53.3241 50.6253 L 54.4132 50.6253 L 58.3709 43.7748 L 57.1826 43.7748 L 54.9962 47.7244 C 54.8302 48.0523 54.6845 48.36 54.5569 48.6374 C 54.4314 48.9187 54.312 49.1941 54.2006 49.4653 L 54.1723 49.4653 C 54.1905 49.2386 54.2047 48.9795 54.2067 48.6839 C 54.2128 48.3884 54.2128 48.0564 54.2087 47.6818 L 54.1116 43.7748 L 53.0791 43.7748 L 50.7207 47.7527 C 50.5223 48.0948 50.3462 48.4086 50.1984 48.6981 C 50.0466 48.9876 49.9231 49.2427 49.828 49.4653 L 49.7854 49.4653 C 49.8057 49.2831 49.8259 49.107 49.8421 48.9329 C 49.8583 48.7588 49.8725 48.5645 49.8867 48.358 C 49.8988 48.1495 49.9069 47.9086 49.913 47.6272 L 49.996 43.7768 L 48.834 43.7768 L 48.834 43.7748 Z M 39.3457 43.7748 L 39.4084 50.6253 L 40.4975 50.6253 L 42.7811 46.8599 C 42.9025 46.6595 43.0098 46.4632 43.111 46.2749 C 43.2122 46.0866 43.3094 45.8943 43.4086 45.7 C 43.5078 45.5036 43.6131 45.2971 43.7224 45.0765 L 43.7507 45.0765 C 43.7264 45.3781 43.7062 45.6797 43.6981 45.9773 C 43.688 46.2769 43.688 46.5867 43.6961 46.9025 L 43.8358 50.6253 L 44.9249 50.6253 L 48.8826 43.7748 L 47.6942 43.7748 L 45.5099 47.7244 C 45.3439 48.0523 45.1982 48.36 45.0706 48.6374 C 44.9451 48.9187 44.8257 49.1941 44.7143 49.4653 L 44.686 49.4653 C 44.7042 49.2386 44.7164 48.9795 44.7204 48.6839 C 44.7265 48.3884 44.7265 48.0564 44.7224 47.6818 L 44.6253 43.7748 L 43.5928 43.7748 L 41.2344 47.7527 C 41.036 48.0948 40.8599 48.4086 40.7121 48.6981 C 40.5603 48.9876 40.4368 49.2427 40.3417 49.4653 L 40.2992 49.4653 C 40.3194 49.2831 40.3396 49.107 40.3558 48.9329 C 40.372 48.7588 40.3862 48.5645 40.4004 48.358 C 40.4125 48.1495 40.4206 47.9086 40.4267 47.6272 L 40.5097 43.7768 L 39.3457 43.7768 L 39.3457 43.7748 Z M 29.8594 43.7748 L 29.9221 50.6253 L 31.0113 50.6253 L 33.2948 46.8599 C 33.4162 46.6595 33.5235 46.4632 33.6247 46.2749 C 33.726 46.0866 33.8252 45.8943 33.9223 45.7 C 34.0215 45.5036 34.1268 45.2971 34.2361 45.0765 L 34.2644 45.0765 C 34.2381 45.3781 34.2199 45.6797 34.2118 45.9773 C 34.1997 46.2769 34.2017 46.5867 34.2098 46.9025 L 34.3495 50.6253 L 35.4386 50.6253 L 39.3963 43.7748 L 38.208 43.7748 L 36.0236 47.7244 C 35.8576 48.0523 35.7119 48.36 35.5843 48.6374 C 35.4588 48.9187 35.3394 49.1941 35.2281 49.4653 L 35.1997 49.4653 C 35.2179 49.2386 35.2301 48.9795 35.2341 48.6839 C 35.2402 48.3884 35.2402 48.0564 35.2362 47.6818 L 35.139 43.7748 L 34.1065 43.7748 L 31.7481 47.7527 C 31.5497 48.0948 31.3736 48.4086 31.2258 48.6981 C 31.074 48.9876 30.9505 49.2427 30.8554 49.4653 L 30.8129 49.4653 C 30.8331 49.2831 30.8533 49.107 30.8695 48.9329 C 30.8857 48.7588 30.8999 48.5645 30.9121 48.358 C 30.9242 48.1495 30.9343 47.9086 30.9384 47.6272 L 31.0214 43.7768 L 29.8594 43.7768 L 29.8594 43.7748 Z" stroke-linecap="round" />
</g>
		<g transform="matrix(1 0 0 1 -5.39 -11.74)"  >
<path style="stroke: none; stroke-width: 1; stroke-dasharray: none; stroke-linecap: butt; stroke-dashoffset: 0; stroke-linejoin: miter; stroke-miterlimit: 4; fill: rgb(23,95,173); fill-rule: evenodd; opacity: 1;" vector-effect="non-scaling-stroke"  transform=" translate(-73.61, -15.26)" d="M 101.513 26.4963 C 101.888 25.5125 102.262 24.5306 102.59 23.5468 L 102.59 23.5002 C 102.871 22.7046 103.246 21.8159 103.667 21.1135 C 104.088 20.5041 104.697 19.8968 105.493 20.083 C 106.289 20.2693 106.57 21.1135 106.663 21.8159 C 106.756 22.6115 106.71 23.4537 106.617 24.2492 L 106.477 26.308 C 109.613 26.1218 112.704 25.7473 115.7 25.2776 C 116.168 24.4355 116.635 23.5448 117.105 22.7026 C 117.619 21.6722 118.229 20.6438 118.978 19.7996 C 119.212 19.4717 119.538 19.1437 119.866 18.9109 C 120.334 18.583 120.85 18.4433 121.364 18.6761 C 122.395 19.1437 122.16 20.5021 121.974 21.3442 L 121.974 21.3908 L 121.225 24.2007 C 122.488 23.8727 123.707 23.5448 124.923 23.1702 C 126.796 17.8805 128.247 12.4977 129.229 6.92654 L 129.229 6.87998 L 129.276 6.83342 C 129.415 6.27266 129.697 5.00742 129.089 4.53978 C 128.715 4.25839 128.106 4.30496 127.684 4.35354 C 126.889 4.49322 126.093 4.82117 125.484 5.24225 C 124.923 5.61676 124.36 6.13095 124.032 6.69374 L 124.032 6.7403 C 121.176 11.281 118.368 15.8217 115.558 20.3624 C 114.856 21.4394 113.451 22.4212 112.188 21.8605 C 111.204 21.4394 110.925 20.409 110.925 19.4251 C 111.159 15.68 111.392 11.9814 111.627 8.28288 C 111.674 7.11279 111.487 5.24022 110.175 4.81915 C 109.613 4.58432 109.005 4.77259 108.489 5.05398 C 107.554 5.61473 106.851 6.59859 106.382 7.53588 L 106.335 7.53588 C 102.871 13.5281 100.203 19.9879 97.9077 26.5429 C 99.1264 26.5429 100.343 26.5429 101.513 26.4963 Z M 64.2502 15.3075 C 64.2967 14.4654 64.4384 13.5746 64.6247 12.7791 C 64.9061 11.4207 65.7482 8.2849 67.5277 8.2849 C 69.6351 8.23834 71.6939 8.23834 73.7547 8.19178 L 73.8012 8.19178 C 77.4532 8.19178 78.7165 10.1575 77.265 13.4815 L 77.2184 13.5281 L 77.2184 13.5746 C 76.7973 14.3702 76.2346 15.1192 75.5807 15.7751 C 73.615 17.7408 70.9469 18.2105 68.2301 18.1153 C 67.9487 18.0688 67.6694 18.0688 67.388 18.0688 C 66.4993 18.0688 65.6085 17.9757 64.9061 17.3663 C 64.3433 16.8056 64.2036 16.0565 64.2502 15.3075 Z M 94.4905 26.4498 C 94.6302 25.9821 94.8185 25.5145 95.0047 25.0448 C 96.1748 21.6742 97.1587 18.257 98.0939 14.8399 C 98.0939 14.5119 98.0939 13.7629 97.8125 13.6232 C 97.7194 13.5301 97.5311 13.6232 97.438 13.6232 C 96.9704 13.8115 96.5028 14.184 96.1748 14.5119 L 96.1282 14.5119 C 95.3792 15.2144 94.7699 16.7124 94.3954 17.6477 C 93.7395 19.334 93.2718 21.0649 92.7576 22.7978 C 92.3831 23.9679 92.0552 25.1845 91.6341 26.3566 C 92.5714 26.4032 93.5087 26.4498 94.4905 26.4498 Z M 81.7571 25.7007 C 81.8502 25.561 81.8968 25.4193 81.9454 25.2797 C 82.3664 24.063 82.8806 22.8929 83.3503 21.6742 C 83.7248 20.739 84.0993 19.7551 84.4273 18.7712 C 84.8018 17.5546 85.0832 16.3379 85.316 15.0727 C 85.3625 14.6516 85.4091 13.856 84.9415 13.5746 C 84.6601 13.3884 84.1924 13.4815 83.8645 13.6212 C 83.2086 13.856 82.6478 14.4633 82.2268 15.0727 C 81.0101 17.2732 80.0262 19.6599 79.4169 22.0953 L 79.4169 22.1884 L 79.3703 22.235 C 78.9027 23.4051 77.8723 24.9962 76.3742 24.6217 C 75.5321 24.4335 75.0159 23.733 74.8296 22.9354 L 74.7831 22.8889 L 74.7831 22.8423 C 74.5968 21.8119 73.9409 21.0629 73.1453 20.409 L 72.1149 19.5668 L 73.2385 18.8178 C 77.4047 15.9148 80.1194 12.5908 79.4169 7.20793 C 78.7144 4.2584 73.5178 4.25839 71.2242 4.35151 L 71.1776 4.35151 C 67.6208 4.30495 64.0153 4.2584 60.4565 4.16527 C 59.7074 6.41235 58.9584 8.61286 58.2094 10.8134 C 56.9462 14.7468 55.7275 18.7247 54.6991 22.7046 C 56.7113 22.9395 58.8187 23.2188 60.8775 23.4537 C 61.1124 23.0326 61.3917 22.6115 61.6731 22.3301 L 61.9545 22.0487 L 62.3756 22.0487 C 64.8109 22.0953 67.2442 22.1419 69.6796 22.1884 L 69.7727 22.1884 C 71.4104 22.3281 73.0502 22.984 73.7992 24.6238 C 73.8458 24.7169 73.8923 24.8586 73.9389 24.9983 C 76.5625 25.2797 79.1841 25.5125 81.7571 25.7007 Z M 51.3285 22.3301 C 51.6099 21.5345 51.8427 20.7855 52.0775 19.9899 C 52.452 18.6316 52.9662 16.3845 52.1706 15.0747 C 52.1241 14.9816 52.031 14.8885 51.9824 14.7933 C 51.6079 14.5119 51.2333 14.2326 50.8588 14.0443 C 48.9863 13.0604 46.6926 13.0604 44.6804 13.435 C 42.8544 13.8095 40.8887 14.5585 39.3441 15.5889 C 38.6416 16.0565 37.2367 17.1335 37.1901 18.0708 L 37.1901 18.1639 L 37.1436 18.257 C 37.1901 18.6316 38.1274 19.0526 38.4068 19.1458 C 38.7348 19.2389 39.6235 19.4271 39.9514 19.2854 L 39.998 19.2389 L 40.0911 19.0992 C 41.8705 17.1335 43.9293 15.9148 46.5975 17.1335 C 47.1582 17.3683 47.6279 17.7894 47.9073 18.3967 C 48.4701 19.5203 48.1887 20.8786 47.4862 21.907 C 48.7535 22.0487 50.0187 22.1884 51.3285 22.3301 Z M 26.1431 21.0649 C 26.3293 18.6316 27.0783 16.2428 28.4832 13.9957 C 30.4955 10.5785 33.6333 7.91039 36.7691 5.52161 C 37.0505 5.24022 37.3319 4.58635 37.0505 4.20981 C 36.7691 3.78874 36.0666 4.02357 35.7387 4.16325 C 33.3985 5.37991 31.1514 6.69171 29.044 8.18976 C 26.4224 9.96919 24.0357 12.028 21.7886 14.2751 C 21.2258 14.8358 20.5254 15.352 19.7763 15.5869 C 19.0739 15.8217 18.3249 15.7266 17.7641 15.2589 C 17.0151 14.6496 16.922 13.5726 17.2013 12.6839 L 17.2013 12.5908 C 17.9503 10.53 18.5597 8.42459 18.9808 6.27064 C 19.0739 5.803 19.167 5.19366 19.0273 4.72603 C 18.9808 4.63291 18.8876 4.4912 18.7925 4.44463 C 18.6528 4.39807 18.418 4.4912 18.2783 4.58432 C 17.8572 4.81915 17.4827 5.28678 17.2479 5.75442 C 14.4866 10.53 12.2861 15.68 10.367 20.828 C 9.80622 22.4192 9.24344 24.0124 8.68066 25.6036 C 13.27 22.7512 19.2621 21.4394 26.1431 21.0649 Z M 133.254 19.9413 C 135.219 15.4938 136.906 10.9065 138.404 6.36579 C 138.59 5.89815 138.638 5.24225 138.217 4.86774 C 137.843 4.49323 137.187 4.44666 136.719 4.53978 C 136.159 4.6329 135.596 4.96086 135.314 5.52364 L 135.314 5.5702 C 134.612 6.78685 134.051 8.14522 133.535 9.455 C 132.879 11.1413 132.318 12.8722 131.802 14.6516 C 131.146 16.8987 130.539 19.1458 129.929 21.3928 C 131.053 20.9718 132.177 20.4576 133.254 19.9413 Z" stroke-linecap="round" />
</g>
		<g transform="matrix(1 0 0 1 63.56 4.02)"  >
<path style="stroke: none; stroke-width: 1; stroke-dasharray: none; stroke-linecap: butt; stroke-dashoffset: 0; stroke-linejoin: miter; stroke-miterlimit: 4; fill: rgb(240,82,35); fill-rule: evenodd; opacity: 1;" vector-effect="non-scaling-stroke"  transform=" translate(-142.56, -31.02)" d="M 145.331 28.3705 C 143.833 26.7793 138.683 23.2204 136.578 23.1273 C 131.1 22.9876 139.246 29.2592 139.902 30.243 C 141.774 32.1622 130.446 33.895 130.632 38.2009 C 130.632 38.8568 131.007 39.0431 131.663 38.8102 C 133.956 37.9215 138.122 35.6745 139.667 34.9254 C 141.774 33.8485 148.095 31.2734 145.331 28.3705 Z M 153.852 28.7915 C 152.447 27.2935 147.671 23.9694 145.752 23.9229 C 140.697 23.7832 148.234 29.5871 148.842 30.4779 C 150.528 32.2573 140.088 33.895 140.228 37.875 C 140.274 38.4378 140.602 38.624 141.212 38.3892 C 143.319 37.5936 147.204 35.5328 148.609 34.7837 C 150.574 33.8485 156.427 31.4597 153.852 28.7915 Z" stroke-linecap="round" />
</g>
		<g transform="matrix(1 0 0 1 61.35 0.34)"  >
<path style="stroke: none; stroke-width: 1; stroke-dasharray: none; stroke-linecap: butt; stroke-dashoffset: 0; stroke-linejoin: miter; stroke-miterlimit: 4; fill: rgb(242,107,33); fill-rule: evenodd; opacity: 1;" vector-effect="non-scaling-stroke"  transform=" translate(-140.35, -27.34)" d="M 135.454 24.0616 C 135.454 24.2964 135.829 24.8571 135.968 24.9968 C 136.389 25.6527 136.999 26.26 137.513 26.8228 C 138.122 27.4322 138.73 27.9929 139.385 28.6023 C 139.713 28.8837 140.228 29.3513 140.509 29.7724 C 140.744 30.0072 140.884 30.3331 140.884 30.6611 C 140.884 30.7076 140.884 30.7076 140.884 30.7542 C 141.165 30.6611 141.398 30.6145 141.679 30.5679 C 142.896 30.2866 144.066 30.0537 145.238 29.8655 C 145.238 29.491 145.003 29.163 144.77 28.9302 C 143.459 27.5253 138.404 23.9684 136.578 23.9219 C 136.389 23.9219 135.687 23.9219 135.454 24.0616 Z" stroke-linecap="round" />
</g>
		<g transform="matrix(1 0 0 1 70.03 0.05)"  >
<path style="stroke: none; stroke-width: 1; stroke-dasharray: none; stroke-linecap: butt; stroke-dashoffset: 0; stroke-linejoin: miter; stroke-miterlimit: 4; fill: rgb(242,107,33); fill-rule: evenodd; opacity: 1;" vector-effect="non-scaling-stroke"  transform=" translate(-149.03, -27.05)" d="M 144.817 24.8106 C 144.864 25.3714 146.315 26.918 146.69 27.2925 C 147.253 27.8533 147.813 28.3695 148.376 28.9302 C 148.516 29.0699 148.704 29.2116 148.939 29.3979 C 150.437 29.3048 151.889 29.2582 153.245 29.2582 C 151.982 27.995 147.441 24.764 145.755 24.7175 C 145.566 24.6709 145.004 24.7175 144.817 24.8106 Z" stroke-linecap="round" />
</g>
</g>
</g>
</svg>