<svg xmlns="http://www.w3.org/2000/svg" width="32" height="33" fill="none" class="IconKabum"><path fill="#2056A3" fill-rule="evenodd" d="M2.115 27.74C4.977 18.772 8.174 9.956 12.428 3.243c1.186-2.103 3.558-1.926 2.965.886a31.229 31.229 0 0 1-1.47 4.864c-.386 1.216.62 2.002 2.372.431a45.51 45.51 0 0 1 11.68-7.727C30.32.861 30.94 3.015 29.65 4.028c-5.285 3.724-9.848 7.879-8.043 15.53.386 2.229.644 4.407.386 6.611-.902 3.674-4.512 1.495-4.77-.1-.54-2.433-1.082-4.89-1.882-7.246-.618-1.85-2.036-2.23-3.635-.279-1.34 1.52-2.552 2.837-3.455 5.827-1.727 3.648-3.841 3.699-6.136 3.37Z" clip-rule="evenodd" style="--darkreader-inline-fill:#73ade3"/><path fill="#fff" fill-rule="evenodd" d="M19.981 29.716c-1.985 0-4.074-1.621-4.383-3.395l-.051-.152a62.884 62.884 0 0 0-1.78-6.89h-.025a1.43 1.43 0 0 0-.155-.38l-.567.557h-.026c-1.315 1.47-2.32 2.61-3.145 5.295l-.052.076v.101c-1.418 3.015-3.377 4.408-6.162 4.408a11.254 11.254 0 0 1-1.753-.152L0 28.931l.541-1.672C3.197 18.975 6.523 9.525 11.01 2.457 11.782 1.09 13.046.253 14.386.253c.388-.001.772.077 1.127.23.355.152.674.376.936.657.464.532.954 1.52.593 3.217a30.087 30.087 0 0 1-.774 2.964A46.888 46.888 0 0 1 27.252.304h.129A4.686 4.686 0 0 1 28.979 0c1.29 0 2.372.659 2.81 1.723.439 1.064.078 2.558-1.005 3.445h-.078c-5.852 4.104-8.946 7.727-7.45 14.035v.05c.386 2.204.695 4.56.412 6.992v.178c-.722 2.964-2.965 3.217-3.635 3.217" clip-rule="evenodd" style="--darkreader-inline-fill:#e8e6e3"/><path fill="#175FAD" fill-rule="evenodd" d="M1.97 27.594c2.843-8.742 6.017-17.336 10.242-23.88 1.178-2.05 3.533-1.877 2.944.864a30.023 30.023 0 0 1-1.459 4.742c-.384 1.185.614 1.95 2.355.42a45.275 45.275 0 0 1 11.599-7.533c2.33-.815 2.944 1.285 1.664 2.272-5.249 3.63-9.78 7.68-7.988 15.139.384 2.173.64 4.297.384 6.445-.896 3.58-4.48 1.457-4.737-.099-.538-2.37-1.075-4.766-1.869-7.063-.614-1.802-2.023-2.173-3.61-.271-1.331 1.482-2.535 2.766-3.43 5.68-1.716 3.556-3.816 3.605-6.094 3.284Z" clip-rule="evenodd" style="--darkreader-inline-fill:#6ab0eb"/><path fill="#008BCC" fill-rule="evenodd" d="M19.48 15.67a10.995 10.995 0 0 1 1.823-5.231c1.554-2.528 3.959-4.505 6.388-6.282.218-.2.437-.701.219-.977-.22-.275-.753-.125-1.02-.025a46.032 46.032 0 0 0-5.175 2.979 39.444 39.444 0 0 0-5.586 4.505 4.11 4.11 0 0 1-1.555.976 1.628 1.628 0 0 1-1.554-.25c-.583-.45-.656-1.252-.437-1.902v-.076a28.576 28.576 0 0 0 1.36-4.68c.1-.366.117-.752.048-1.126a.844.844 0 0 0-.194-.225.759.759 0 0 0-.389.1 2.3 2.3 0 0 0-.801.876c-2.138 3.529-3.838 7.358-5.32 11.162A205.74 205.74 0 0 1 6 19.024c3.546-2.103 8.161-3.08 13.48-3.354Z" clip-rule="evenodd" style="--darkreader-inline-fill:#3dc1ff"/><path fill="#097BBB" d="M6 19.023c.437-1.174.874-2.35 1.287-3.524 1.482-3.8 3.182-7.625 5.32-11.15.188-.359.464-.66.801-.875a.785.785 0 0 1 .34-.1h.049a.843.843 0 0 1 .194.225 2.52 2.52 0 0 1-.048 1.125 28.515 28.515 0 0 1-1.36 4.675v.075c-.22.65-.146 1.45.437 1.9.275.229.618.352.971.35.198-.009.394-.043.583-.1a4.111 4.111 0 0 0 1.555-.975 39.435 39.435 0 0 1 5.586-4.5 46.046 46.046 0 0 1 5.174-2.975c.194-.082.399-.132.608-.15a.497.497 0 0 1 .413.175c.218.275 0 .775-.22.975-2.428 1.775-4.833 3.75-6.387 6.275a10.974 10.974 0 0 0-1.822 5.225c-5.32.275-9.935 1.25-13.481 3.35" style="--darkreader-inline-fill:#4bb9f6"/><path fill="#fff" fill-rule="evenodd" d="M11.807 31.997c-.799 0-1.624-.532-1.624-1.52-.077-2.154 2.604-3.294 4.59-4.13l.825-.354c-1.96-1.672-3.3-2.99-2.76-4.282.233-.48.8-1.089 2.244-1.089h.155c.928.05 2.294.659 3.532 1.368.258-.43.825-.912 2.062-.912h.155c1.805.05 5.13 2.356 5.956 3.167.825.81.85 1.266.721 1.95-.309 1.495-2.191 2.407-4.073 3.192l-.284.127c-2.217 1.064-3.815 1.799-4.77 2.128a2.411 2.411 0 0 1-.721.127 1.563 1.563 0 0 1-1.092-.391 1.51 1.51 0 0 1-.507-1.028h-.026c-1.16.532-2.63 1.216-3.635 1.57h-.026c-.23.09-.475.133-.722.127" clip-rule="evenodd" style="--darkreader-inline-fill:#e8e6e3"/><path fill="#F05223" fill-rule="evenodd" d="M25.611 25.247c-.82-.856-3.621-2.744-4.756-2.77-2.969-.075 1.473 3.223 1.81 3.751.99 1.007-5.141 1.938-5.044 4.204.032.319.225.42.579.302 1.231-.453 3.5-1.636 4.345-2.064.845-.428 4.587-1.888 3.066-3.423Zm-4.997-.227c-.893-.906-3.91-2.945-5.142-2.995-3.21-.076 1.57 3.498 1.955 4.052 1.087 1.108-5.552 2.09-5.455 4.556 0 .353.217.479.603.328 1.352-.504 3.79-1.788 4.708-2.215.917-.428 4.948-2.065 3.331-3.726Z" clip-rule="evenodd" style="--darkreader-inline-fill:#f16035"/><path fill="#F26B21" fill-rule="evenodd" d="M14.97 22.104c.06.209.164.402.303.567.292.377.613.73.958 1.057.353.361.731.67 1.135 1.032.26.205.496.438.706.696.138.135.22.32.226.516v.051l.48-.103c.756-.18 1.462-.31 2.193-.412a.734.734 0 0 0-.303-.542c-.806-.825-3.907-2.914-5.017-2.94-.23-.012-.46.014-.68.078M19.97 23.067c.05.244.903.903 1.123 1.053l1 .715.341.188 2.537-.056c-.732-.546-3.44-1.919-4.44-1.938a1.944 1.944 0 0 0-.56.038" clip-rule="evenodd" style="--darkreader-inline-fill:#f37733"/></svg>