<?xml version="1.0" encoding="UTF-8" standalone="no" ?>
<!DOCTYPE svg PUBLIC "-//W3C//DTD SVG 1.1//EN" "http://www.w3.org/Graphics/SVG/1.1/DTD/svg11.dtd">
<svg xmlns="http://www.w3.org/2000/svg" xmlns:xlink="http://www.w3.org/1999/xlink" version="1.1" width="1080" height="1080" viewBox="0 0 1080 1080" xml:space="preserve">
<desc>Created with Fabric.js 5.2.4</desc>
<defs>
</defs>
<g transform="matrix(1 0 0 1 540 540)" id="8e329967-919f-442b-a534-33138d1c4cd1"  >
<rect style="stroke: none; stroke-width: 1; stroke-dasharray: none; stroke-linecap: butt; stroke-dashoffset: 0; stroke-linejoin: miter; stroke-miterlimit: 4; fill: rgb(255,255,255); fill-rule: nonzero; opacity: 1; visibility: hidden;" vector-effect="non-scaling-stroke"  x="-540" y="-540" rx="0" ry="0" width="1080" height="1080" />
</g>
<g transform="matrix(1 0 0 1 540 540)" id="bb5967ec-7d7d-4a98-9190-f3c5fea19784"  >
</g>
<g transform="matrix(77.14 0 0 77.14 540 540)"  >
<path style="stroke: none; stroke-width: 1; stroke-dasharray: none; stroke-linecap: butt; stroke-dashoffset: 0; stroke-linejoin: miter; stroke-miterlimit: 4; fill: rgb(127,133,141); fill-rule: evenodd; opacity: 1;"  transform=" translate(-7, -6.94)" d="M 10.0073 8.73113 L 9.37176 8.73113 L 9.15083 8.51364 C 9.93128 7.61116 10.4059 6.44118 10.4059 5.15929 C 10.4059 2.30976 8.07662 -0.0000257492 5.20297 -0.0000257492 C 2.32933 -0.0000257492 0 2.30976 0 5.15929 C 0 8.00882 2.32933 10.3186 5.20297 10.3186 C 6.49571 10.3186 7.67479 9.84872 8.58491 9.07561 L 8.80583 9.2931 L 8.80583 9.92174 L 12.8065 13.8833 L 14 12.6998 L 10.0073 8.73113 Z M 5.20338 8.73088 C 3.21344 8.73088 1.60132 7.13228 1.60132 5.15904 C 1.60132 3.18659 3.21344 1.5872 5.20338 1.5872 C 7.19252 1.5872 8.80545 3.18659 8.80545 5.15904 C 8.80545 7.13228 7.19252 8.73088 5.20338 8.73088 Z" stroke-linecap="round" />
</g>
<g transform="matrix(77.14 0 0 77.14 540 540)"  >
<path style="stroke: none; stroke-width: 1; stroke-dasharray: none; stroke-linecap: butt; stroke-dashoffset: 0; stroke-linejoin: miter; stroke-miterlimit: 4; fill: rgb(127,133,141); fill-rule: evenodd; opacity: 1;"  transform=" translate(-7, -6.94)" d="M 10.0073 8.73113 L 9.37176 8.73113 L 9.15083 8.51364 C 9.93128 7.61116 10.4059 6.44118 10.4059 5.15929 C 10.4059 2.30976 8.07662 -0.0000257492 5.20297 -0.0000257492 C 2.32933 -0.0000257492 0 2.30976 0 5.15929 C 0 8.00882 2.32933 10.3186 5.20297 10.3186 C 6.49571 10.3186 7.67479 9.84872 8.58491 9.07561 L 8.80583 9.2931 L 8.80583 9.92174 L 12.8065 13.8833 L 14 12.6998 L 10.0073 8.73113 Z M 5.20338 8.73088 C 3.21344 8.73088 1.60132 7.13228 1.60132 5.15904 C 1.60132 3.18659 3.21344 1.5872 5.20338 1.5872 C 7.19252 1.5872 8.80545 3.18659 8.80545 5.15904 C 8.80545 7.13228 7.19252 8.73088 5.20338 8.73088 Z" stroke-linecap="round" />
</g>
<g transform="matrix(77.14 0 0 77.14 540 540)"  >
<path style="stroke: none; stroke-width: 1; stroke-dasharray: none; stroke-linecap: butt; stroke-dashoffset: 0; stroke-linejoin: miter; stroke-miterlimit: 4; fill: rgb(127,133,141); fill-rule: evenodd; opacity: 1;"  transform=" translate(-7, -6.94)" d="M 10.0073 8.73113 L 9.37176 8.73113 L 9.15083 8.51364 C 9.93128 7.61116 10.4059 6.44118 10.4059 5.15929 C 10.4059 2.30976 8.07662 -0.0000257492 5.20297 -0.0000257492 C 2.32933 -0.0000257492 0 2.30976 0 5.15929 C 0 8.00882 2.32933 10.3186 5.20297 10.3186 C 6.49571 10.3186 7.67479 9.84872 8.58491 9.07561 L 8.80583 9.2931 L 8.80583 9.92174 L 12.8065 13.8833 L 14 12.6998 L 10.0073 8.73113 Z M 5.20338 8.73088 C 3.21344 8.73088 1.60132 7.13228 1.60132 5.15904 C 1.60132 3.18659 3.21344 1.5872 5.20338 1.5872 C 7.19252 1.5872 8.80545 3.18659 8.80545 5.15904 C 8.80545 7.13228 7.19252 8.73088 5.20338 8.73088 Z" stroke-linecap="round" />
</g>
<g transform="matrix(77.14 0 0 77.14 540 540)"  >
<path style="stroke: none; stroke-width: 1; stroke-dasharray: none; stroke-linecap: butt; stroke-dashoffset: 0; stroke-linejoin: miter; stroke-miterlimit: 4; fill: rgb(127,133,141); fill-rule: evenodd; opacity: 1;"  transform=" translate(-7, -6.94)" d="M 10.0073 8.73113 L 9.37176 8.73113 L 9.15083 8.51364 C 9.93128 7.61116 10.4059 6.44118 10.4059 5.15929 C 10.4059 2.30976 8.07662 -0.0000257492 5.20297 -0.0000257492 C 2.32933 -0.0000257492 0 2.30976 0 5.15929 C 0 8.00882 2.32933 10.3186 5.20297 10.3186 C 6.49571 10.3186 7.67479 9.84872 8.58491 9.07561 L 8.80583 9.2931 L 8.80583 9.92174 L 12.8065 13.8833 L 14 12.6998 L 10.0073 8.73113 Z M 5.20338 8.73088 C 3.21344 8.73088 1.60132 7.13228 1.60132 5.15904 C 1.60132 3.18659 3.21344 1.5872 5.20338 1.5872 C 7.19252 1.5872 8.80545 3.18659 8.80545 5.15904 C 8.80545 7.13228 7.19252 8.73088 5.20338 8.73088 Z" stroke-linecap="round" />
</g>
</svg>